<svg width="94" height="31" fill="none" xmlns="http://www.w3.org/2000/svg"><path d="M.202 30V.91h7.03v23.38h12.103V30H.202Zm48.047-18.551h-7.103a6.154 6.154 0 0 0-.582-1.975 4.8 4.8 0 0 0-1.165-1.505 4.972 4.972 0 0 0-1.719-.952c-.653-.227-1.377-.34-2.173-.34-1.41 0-2.628.345-3.65 1.036-1.014.691-1.795 1.69-2.344 2.997-.54 1.307-.81 2.888-.81 4.744 0 1.932.275 3.552.824 4.858.559 1.298 1.34 2.278 2.344 2.94 1.013.654 2.21.981 3.594.981.776 0 1.481-.1 2.116-.298a5.19 5.19 0 0 0 1.69-.867 4.79 4.79 0 0 0 1.208-1.406 5.738 5.738 0 0 0 .667-1.89l7.103.043c-.123 1.288-.498 2.557-1.123 3.807-.615 1.25-1.463 2.391-2.542 3.424-1.08 1.022-2.396 1.837-3.95 2.443-1.543.606-3.313.909-5.312.909-2.632 0-4.99-.578-7.073-1.733-2.074-1.165-3.712-2.86-4.915-5.085-1.203-2.226-1.804-4.934-1.804-8.125 0-3.201.61-5.914 1.832-8.14 1.222-2.225 2.874-3.915 4.958-5.07C30.403 1.088 32.737.51 35.322.51c1.762 0 3.39.247 4.887.739 1.496.483 2.812 1.193 3.949 2.13 1.136.929 2.06 2.07 2.77 3.424s1.15 2.902 1.32 4.645Zm30.43 0h-7.103a6.154 6.154 0 0 0-.582-1.975 4.801 4.801 0 0 0-1.165-1.505 4.972 4.972 0 0 0-1.719-.952c-.653-.227-1.378-.34-2.173-.34-1.411 0-2.628.345-3.65 1.036-1.014.691-1.795 1.69-2.344 2.997-.54 1.307-.81 2.888-.81 4.744 0 1.932.274 3.552.824 4.858.558 1.298 1.34 2.278 2.343 2.94 1.014.654 2.212.981 3.594.981.777 0 1.482-.1 2.117-.298a5.192 5.192 0 0 0 1.69-.867 4.79 4.79 0 0 0 1.207-1.406 5.738 5.738 0 0 0 .668-1.89l7.102.043c-.123 1.288-.497 2.557-1.122 3.807-.615 1.25-1.463 2.391-2.543 3.424-1.08 1.022-2.395 1.837-3.948 2.443-1.544.606-3.315.909-5.313.909-2.632 0-4.99-.578-7.074-1.733-2.074-1.165-3.712-2.86-4.914-5.085-1.203-2.226-1.805-4.934-1.805-8.125 0-3.201.611-5.914 1.833-8.14 1.221-2.225 2.874-3.915 4.957-5.07C60.833 1.088 63.167.51 65.752.51c1.761 0 3.39.247 4.886.739 1.497.483 2.813 1.193 3.95 2.13 1.136.929 2.059 2.07 2.77 3.424.71 1.354 1.15 2.902 1.32 4.645Z" fill="#fff"/><path d="M88.898 30.566c-1.406 0-2.61-.494-3.613-1.484-.99-.99-1.478-2.188-1.465-3.594-.013-1.38.476-2.558 1.465-3.535 1.003-.99 2.207-1.484 3.613-1.484 1.329 0 2.5.494 3.516 1.484 1.029.977 1.55 2.155 1.563 3.535a4.851 4.851 0 0 1-.743 2.559 5.33 5.33 0 0 1-1.855 1.836 4.712 4.712 0 0 1-2.48.683Z" fill="#FFB444"/></svg>