<svg width="104" height="45" viewBox="0 0 104 45" fill="none" xmlns="http://www.w3.org/2000/svg">
<g filter="url(#filter0_d_295_1223)">
<path d="M4.2017 36V6.90909H11.233V30.2898H23.3352V36H4.2017ZM52.2486 17.4489H45.1463C45.0516 16.7197 44.8575 16.0616 44.5639 15.4744C44.2704 14.8873 43.8821 14.3854 43.3991 13.9688C42.9162 13.5521 42.3433 13.2348 41.6804 13.017C41.027 12.7898 40.3026 12.6761 39.5071 12.6761C38.0961 12.6761 36.8793 13.0218 35.8565 13.7131C34.8433 14.4044 34.062 15.4034 33.5128 16.7102C32.973 18.017 32.7031 19.5985 32.7031 21.4545C32.7031 23.3864 32.9777 25.0057 33.527 26.3125C34.0857 27.6098 34.867 28.59 35.8707 29.2528C36.884 29.9062 38.0819 30.233 39.4645 30.233C40.241 30.233 40.9465 30.1335 41.581 29.9347C42.2249 29.7358 42.7884 29.447 43.2713 29.0682C43.7637 28.6799 44.1662 28.2112 44.4787 27.6619C44.8007 27.1032 45.0232 26.4735 45.1463 25.7727L52.2486 25.8153C52.1255 27.1032 51.7514 28.3722 51.1264 29.6222C50.5109 30.8722 49.6634 32.0133 48.5838 33.0455C47.5043 34.0682 46.188 34.8826 44.6349 35.4886C43.0914 36.0947 41.3205 36.3977 39.3224 36.3977C36.6899 36.3977 34.3319 35.8201 32.2486 34.6648C30.1747 33.5 28.5365 31.8049 27.3338 29.5795C26.1312 27.3542 25.5298 24.6458 25.5298 21.4545C25.5298 18.2538 26.1406 15.5407 27.3622 13.3153C28.5838 11.09 30.2363 9.39962 32.3196 8.24432C34.4029 7.08901 36.7372 6.51136 39.3224 6.51136C41.0838 6.51136 42.7126 6.75758 44.2088 7.25C45.705 7.73295 47.0213 8.44318 48.1577 9.38068C49.294 10.3087 50.2173 11.4498 50.9276 12.804C51.6378 14.1581 52.0781 15.7064 52.2486 17.4489ZM82.6783 17.4489H75.576C75.4813 16.7197 75.2872 16.0616 74.9936 15.4744C74.7 14.8873 74.3118 14.3854 73.8288 13.9688C73.3459 13.5521 72.773 13.2348 72.1101 13.017C71.4567 12.7898 70.7322 12.6761 69.9368 12.6761C68.5258 12.6761 67.3089 13.0218 66.2862 13.7131C65.273 14.4044 64.4917 15.4034 63.9425 16.7102C63.4027 18.017 63.1328 19.5985 63.1328 21.4545C63.1328 23.3864 63.4074 25.0057 63.9567 26.3125C64.5154 27.6098 65.2966 28.59 66.3004 29.2528C67.3137 29.9062 68.5116 30.233 69.8942 30.233C70.6707 30.233 71.3762 30.1335 72.0107 29.9347C72.6546 29.7358 73.218 29.447 73.701 29.0682C74.1934 28.6799 74.5959 28.2112 74.9084 27.6619C75.2304 27.1032 75.4529 26.4735 75.576 25.7727L82.6783 25.8153C82.5552 27.1032 82.1811 28.3722 81.5561 29.6222C80.9406 30.8722 80.093 32.0133 79.0135 33.0455C77.9339 34.0682 76.6177 34.8826 75.0646 35.4886C73.5211 36.0947 71.7502 36.3977 69.7521 36.3977C67.1196 36.3977 64.7616 35.8201 62.6783 34.6648C60.6044 33.5 58.9661 31.8049 57.7635 29.5795C56.5608 27.3542 55.9595 24.6458 55.9595 21.4545C55.9595 18.2538 56.5703 15.5407 57.7919 13.3153C59.0135 11.09 60.666 9.39962 62.7493 8.24432C64.8326 7.08901 67.1669 6.51136 69.7521 6.51136C71.5135 6.51136 73.1423 6.75758 74.6385 7.25C76.1347 7.73295 77.451 8.44318 78.5874 9.38068C79.7237 10.3087 80.647 11.4498 81.3572 12.804C82.0675 14.1581 82.5078 15.7064 82.6783 17.4489Z" fill="white"/>
<path d="M92.8984 36.5664C91.4922 36.5664 90.2878 36.0716 89.2852 35.082C88.2956 34.0924 87.8073 32.8945 87.8203 31.4883C87.8073 30.1081 88.2956 28.9297 89.2852 27.9531C90.2878 26.9635 91.4922 26.4688 92.8984 26.4688C94.2266 26.4688 95.3984 26.9635 96.4141 27.9531C97.4427 28.9297 97.9635 30.1081 97.9766 31.4883C97.9635 32.4258 97.7161 33.2786 97.2344 34.0469C96.7656 34.8151 96.1471 35.4271 95.3789 35.8828C94.6237 36.3385 93.7969 36.5664 92.8984 36.5664Z" fill="#FFB444"/>
</g>
<defs>
<filter id="filter0_d_295_1223" x="0.20166" y="6.51135" width="101.775" height="38.0551" filterUnits="userSpaceOnUse" color-interpolation-filters="sRGB">
<feFlood flood-opacity="0" result="BackgroundImageFix"/>
<feColorMatrix in="SourceAlpha" type="matrix" values="0 0 0 0 0 0 0 0 0 0 0 0 0 0 0 0 0 0 127 0" result="hardAlpha"/>
<feOffset dy="4"/>
<feGaussianBlur stdDeviation="2"/>
<feComposite in2="hardAlpha" operator="out"/>
<feColorMatrix type="matrix" values="0 0 0 0 0 0 0 0 0 0 0 0 0 0 0 0 0 0 0.25 0"/>
<feBlend mode="normal" in2="BackgroundImageFix" result="effect1_dropShadow_295_1223"/>
<feBlend mode="normal" in="SourceGraphic" in2="effect1_dropShadow_295_1223" result="shape"/>
</filter>
</defs>
</svg>
