<svg width="200" height="200" viewBox="0 0 200 200" fill="none" xmlns="http://www.w3.org/2000/svg">
<rect width="200" height="200" fill="#DCDCDC"/>
<g filter="url(#filter0_d_295_1217)">
<path d="M51.2017 112V82.9091H58.233V106.29H70.3352V112H51.2017ZM99.2486 93.4489H92.1463C92.0516 92.7197 91.8575 92.0616 91.5639 91.4744C91.2704 90.8873 90.8821 90.3854 90.3991 89.9688C89.9162 89.5521 89.3433 89.2348 88.6804 89.017C88.027 88.7898 87.3026 88.6761 86.5071 88.6761C85.0961 88.6761 83.8793 89.0218 82.8565 89.7131C81.8433 90.4044 81.062 91.4034 80.5128 92.7102C79.973 94.017 79.7031 95.5985 79.7031 97.4545C79.7031 99.3864 79.9777 101.006 80.527 102.312C81.0857 103.61 81.867 104.59 82.8707 105.253C83.884 105.906 85.0819 106.233 86.4645 106.233C87.241 106.233 87.9465 106.134 88.581 105.935C89.2249 105.736 89.7884 105.447 90.2713 105.068C90.7637 104.68 91.1662 104.211 91.4787 103.662C91.8007 103.103 92.0232 102.473 92.1463 101.773L99.2486 101.815C99.1255 103.103 98.7514 104.372 98.1264 105.622C97.5109 106.872 96.6634 108.013 95.5838 109.045C94.5043 110.068 93.188 110.883 91.6349 111.489C90.0914 112.095 88.3205 112.398 86.3224 112.398C83.6899 112.398 81.3319 111.82 79.2486 110.665C77.1747 109.5 75.5365 107.805 74.3338 105.58C73.1312 103.354 72.5298 100.646 72.5298 97.4545C72.5298 94.2538 73.1406 91.5407 74.3622 89.3153C75.5838 87.09 77.2363 85.3996 79.3196 84.2443C81.4029 83.089 83.7372 82.5114 86.3224 82.5114C88.0838 82.5114 89.7126 82.7576 91.2088 83.25C92.705 83.733 94.0213 84.4432 95.1577 85.3807C96.294 86.3087 97.2173 87.4498 97.9276 88.804C98.6378 90.1581 99.0781 91.7064 99.2486 93.4489ZM129.678 93.4489H122.576C122.481 92.7197 122.287 92.0616 121.994 91.4744C121.7 90.8873 121.312 90.3854 120.829 89.9688C120.346 89.5521 119.773 89.2348 119.11 89.017C118.457 88.7898 117.732 88.6761 116.937 88.6761C115.526 88.6761 114.309 89.0218 113.286 89.7131C112.273 90.4044 111.492 91.4034 110.942 92.7102C110.403 94.017 110.133 95.5985 110.133 97.4545C110.133 99.3864 110.407 101.006 110.957 102.312C111.515 103.61 112.297 104.59 113.3 105.253C114.314 105.906 115.512 106.233 116.894 106.233C117.671 106.233 118.376 106.134 119.011 105.935C119.655 105.736 120.218 105.447 120.701 105.068C121.193 104.68 121.596 104.211 121.908 103.662C122.23 103.103 122.453 102.473 122.576 101.773L129.678 101.815C129.555 103.103 129.181 104.372 128.556 105.622C127.941 106.872 127.093 108.013 126.013 109.045C124.934 110.068 123.618 110.883 122.065 111.489C120.521 112.095 118.75 112.398 116.752 112.398C114.12 112.398 111.762 111.82 109.678 110.665C107.604 109.5 105.966 107.805 104.763 105.58C103.561 103.354 102.96 100.646 102.96 97.4545C102.96 94.2538 103.57 91.5407 104.792 89.3153C106.013 87.09 107.666 85.3996 109.749 84.2443C111.833 83.089 114.167 82.5114 116.752 82.5114C118.513 82.5114 120.142 82.7576 121.638 83.25C123.135 83.733 124.451 84.4432 125.587 85.3807C126.724 86.3087 127.647 87.4498 128.357 88.804C129.067 90.1581 129.508 91.7064 129.678 93.4489Z" fill="white"/>
<path d="M139.898 112.566C138.492 112.566 137.288 112.072 136.285 111.082C135.296 110.092 134.807 108.895 134.82 107.488C134.807 106.108 135.296 104.93 136.285 103.953C137.288 102.964 138.492 102.469 139.898 102.469C141.227 102.469 142.398 102.964 143.414 103.953C144.443 104.93 144.964 106.108 144.977 107.488C144.964 108.426 144.716 109.279 144.234 110.047C143.766 110.815 143.147 111.427 142.379 111.883C141.624 112.339 140.797 112.566 139.898 112.566Z" fill="#FFB444"/>
</g>
<defs>
<filter id="filter0_d_295_1217" x="47.2017" y="82.5112" width="101.775" height="38.0552" filterUnits="userSpaceOnUse" color-interpolation-filters="sRGB">
<feFlood flood-opacity="0" result="BackgroundImageFix"/>
<feColorMatrix in="SourceAlpha" type="matrix" values="0 0 0 0 0 0 0 0 0 0 0 0 0 0 0 0 0 0 127 0" result="hardAlpha"/>
<feOffset dy="4"/>
<feGaussianBlur stdDeviation="2"/>
<feComposite in2="hardAlpha" operator="out"/>
<feColorMatrix type="matrix" values="0 0 0 0 0 0 0 0 0 0 0 0 0 0 0 0 0 0 0.25 0"/>
<feBlend mode="normal" in2="BackgroundImageFix" result="effect1_dropShadow_295_1217"/>
<feBlend mode="normal" in="SourceGraphic" in2="effect1_dropShadow_295_1217" result="shape"/>
</filter>
</defs>
</svg>
